<?xml version="1.0" encoding="UTF-8"?>
<svg width="30px" height="31px" viewBox="0 0 30 31" version="1.1" xmlns="http://www.w3.org/2000/svg" xmlns:xlink="http://www.w3.org/1999/xlink">
    <!-- Generator: Sketch 51.2 (57519) - http://www.bohemiancoding.com/sketch -->
    <title>Rectangle 9</title>
    <desc>Created with Sketch.</desc>
    <defs></defs>
    <g id="Page-1" stroke="none" stroke-width="1" fill="none" fill-rule="evenodd">
        <g id="Artboard-2-Copy-6" transform="translate(-277.000000, -23.000000)" fill="#5E74FF" fill-rule="nonzero">
            <g id="light_img_1">
                <path d="M282.178238,24.8082074 C285.129979,23.8416681 288.4039,23.3583984 292,23.3583984 C295.5961,23.3583984 298.870021,23.8416681 301.821762,24.8082075 C303.5874,25.3863609 304.972038,26.7709984 305.550191,28.5366365 C306.51673,31.4883775 307,34.7622982 307,38.3583986 C307,41.954499 306.51673,45.2284197 305.550191,48.1801606 C304.972038,49.9457987 303.5874,51.3304362 301.821762,51.9085894 C298.870021,52.8751288 295.5961,53.3583984 292,53.3583984 C288.4039,53.3583984 285.129979,52.8751288 282.178238,51.9085894 C280.4126,51.3304361 279.027962,49.9457985 278.449809,48.1801604 C277.48327,45.2284196 277,41.954499 277,38.3583986 C277,34.7622981 277.48327,31.4883773 278.449809,28.5366364 C279.027962,26.7709982 280.4126,25.3863607 282.178238,24.8082074 Z M293.932663,28.8134681 C294.889787,30.014568 295.558637,31.4722949 295.816045,33.0975055 C296.610805,38.1154254 293.193736,42.8186175 288.175816,43.613378 C286.550606,43.870786 284.957539,43.6851351 283.519458,43.1460157 C283.233315,43.03875 282.982153,43.3635161 283.153809,43.6163667 C285.273472,46.7394634 289.07215,48.532881 293.046946,47.9033351 C298.541154,47.033138 302.271688,41.8987334 301.401298,36.4045559 C300.771722,32.4295664 297.892255,29.3711988 294.267002,28.3203692 C293.973482,28.2352501 293.742224,28.5744773 293.932663,28.8134681 Z M284.810221,37.5749821 L285.603307,37.2866415 C285.875361,37.1877486 285.875361,36.803036 285.603307,36.7041431 C285.361891,36.6163029 285.087122,36.5164406 284.810221,36.4156086 C284.235863,36.2067701 283.783474,35.7543837 283.574441,35.1798355 L283.286098,34.3869474 C283.187205,34.114895 282.80249,34.114895 282.703597,34.3867535 C282.615756,34.6281684 282.515893,34.9029355 282.415254,35.1798355 C282.206221,35.7543837 281.753832,36.2067701 281.179474,36.4156086 C280.902379,36.5164406 280.627804,36.6163029 280.386388,36.7041431 C280.114334,36.803036 280.114334,37.1877486 280.386388,37.2866415 L281.179474,37.5749821 C281.753832,37.7838206 282.206221,38.2364009 282.415254,38.8107552 C282.515893,39.0876552 282.615756,39.3624223 282.703597,39.6038372 C282.80249,39.8758896 283.187205,39.8756957 283.286098,39.6036433 L283.574441,38.8107552 C283.78328,38.2364009 284.235863,37.7838206 284.810221,37.5749821 Z M290.583202,32.0270588 L290.933148,31.8997743 C291.436196,31.716915 291.436196,31.0055562 290.933148,30.8223383 C290.818053,30.7807467 290.700807,30.7380795 290.583202,30.6954123 C289.923467,30.4551854 289.403568,29.9356497 289.163697,29.2759218 L289.036411,28.9259791 C288.85355,28.4229366 288.142184,28.4229366 287.959322,28.9259791 C287.917372,29.041073 287.874704,29.1583181 287.832037,29.2759218 C287.592166,29.9356497 287.072266,30.4551854 286.412532,30.6954123 C286.294927,30.7380795 286.17768,30.7807467 286.062585,30.8223383 C285.559538,31.0055562 285.559896,31.716915 286.062585,31.8997743 L286.412532,32.0270588 C287.072266,32.2669272 287.592166,32.7868215 287.832037,33.4465494 C287.874704,33.5641531 287.917372,33.6813981 287.959322,33.796492 C288.142184,34.2995346 288.85355,34.299176 289.036411,33.7961334 L289.163697,33.4465494 C289.403568,32.7864629 289.923467,32.2669272 290.583202,32.0270588 Z" id="Rectangle-9"></path>
            </g>
        </g>
    </g>
</svg>