<?xml version="1.0" encoding="UTF-8"?>
<svg width="35px" height="34px" viewBox="0 0 35 34" version="1.1" xmlns="http://www.w3.org/2000/svg" xmlns:xlink="http://www.w3.org/1999/xlink">
    <!-- Generator: Sketch 51.2 (57519) - http://www.bohemiancoding.com/sketch -->
    <title>settings (4)</title>
    <desc>Created with Sketch.</desc>
    <defs></defs>
    <g id="Page-1" stroke="none" stroke-width="1" fill="none" fill-rule="evenodd">
        <g id="Artboard-2" transform="translate(-244.000000, -21.000000)" fill-rule="nonzero">
            <g id="settings-(4)" transform="translate(262.000000, 38.000000) rotate(22.000000) translate(-262.000000, -38.000000) translate(246.000000, 21.000000)">
                <path d="M30.247816,19.3710023 L29.3886166,18.8732646 C29.4739176,18.256726 29.5180361,17.6268899 29.5180361,16.9867822 C29.5180361,16.3466745 29.4739176,15.7168384 29.3886166,15.1002998 L30.247816,14.6025621 C31.8613142,13.6677611 32.4178735,11.590815 31.4839267,9.96757377 L29.7875873,7.01920843 C28.8568144,5.40154098 26.785706,4.83954567 25.168637,5.77641686 L24.309279,6.27431382 C23.3244689,5.50178923 22.2303149,4.8629555 21.0541132,4.38520375 L21.0541132,3.39012646 C21.0541132,1.52140047 19.5399609,-8.52651283e-14 17.6720672,-8.52651283e-14 L14.2793883,-8.52651283e-14 C12.417922,-8.52651283e-14 10.8973423,1.51781733 10.8973423,3.39012646 L10.8973423,4.38520375 C9.72114065,4.8629555 8.62698664,5.50178923 7.64217661,6.27431382 L6.78281857,5.77641686 C5.16892354,4.84137705 3.09781513,5.39604684 2.1638683,7.01920843 L0.467528861,9.96749415 C-0.463243973,11.5851616 0.0870467006,13.6658501 1.70363962,14.6024824 L2.56283896,15.1002201 C2.47753795,15.7167588 2.43341948,16.3465948 2.43341948,16.9867026 C2.43341948,17.6268103 2.47753795,18.2566464 2.56283896,18.873185 L1.70363962,19.3709227 C0.0901413418,20.3057237 -0.466417964,22.3826698 0.467528861,24.005911 L2.1638683,26.9541967 C3.09464114,28.5719438 5.16574955,29.1339391 6.78281857,28.1970679 L7.64225596,27.699171 C8.62706599,28.4716956 9.72122,29.1105293 10.8974217,29.588281 L10.8974217,30.5833583 C10.8974217,32.4520843 12.4116534,33.9734848 14.2794677,33.9734848 L17.6721466,33.9734848 C19.5336129,33.9734848 21.0541926,32.4556674 21.0541926,30.5833583 L21.0541926,29.588281 C22.2303943,29.1105293 23.3245483,28.4716956 24.3093583,27.699171 L25.1687164,28.1970679 C26.7826114,29.1321077 28.8537198,28.5774379 29.7876666,26.9542763 L31.4840061,24.0059906 C32.4146995,22.3882436 31.8644882,20.307555 30.247816,19.3710023 Z" id="Path" fill="#5E74FF"></path>
                <path d="M30.247816,19.3710023 L29.3886166,18.8732646 C29.4739176,18.256726 29.5180361,17.6268899 29.5180361,16.9867822 C29.5180361,16.3466745 29.4739176,15.7168384 29.3886166,15.1002998 L30.247816,14.6025621 C31.8613142,13.6677611 32.4178735,11.590815 31.4839267,9.96757377 L29.7875873,7.01920843 C28.8568144,5.40154098 26.785706,4.83954567 25.168637,5.77641686 L24.309279,6.27431382 C23.3244689,5.50178923 22.2303149,4.8629555 21.0541132,4.38520375 L21.0541132,3.39012646 C21.0541132,1.52140047 19.5399609,0 17.6720672,0 L14.2793883,0 C12.417922,0 10.8973423,1.51781733 10.8973423,3.39012646 L10.8973423,4.38520375 C9.72114065,4.8629555 8.62698664,5.50178923 7.64217661,6.27431382 L6.78281857,5.77641686 C5.16892354,4.84137705 3.09781513,5.39604684 2.1638683,7.01920843 L0.467528861,9.96749415 C-0.463243973,11.5851616 0.0870467006,13.6658501 1.70363962,14.6024824 L2.56283896,15.1002201 C2.47753795,15.7167588 2.43341948,16.3465948 2.43341948,16.9867026 C2.43341948,17.6268103 2.47753795,18.2566464 2.56283896,18.873185 L1.70363962,19.3709227 C0.0901413418,20.3057237 -0.466417964,22.3826698 0.467528861,24.005911 L2.1638683,26.9541967 C3.09464114,28.5719438 5.16574955,29.1339391 6.78281857,28.1970679 L7.64225596,27.699171 C8.62706599,28.4716956 9.72122,29.1105293 10.8974217,29.588281 L10.8974217,30.5833583 C10.8974217,32.4520843 12.4116534,33.9734848 14.2794677,33.9734848 L17.6721466,33.9734848 C19.5336129,33.9734848 21.0541926,32.4556674 21.0541926,30.5833583 L21.0541926,29.588281 C22.2303943,29.1105293 23.3245483,28.4716956 24.3093583,27.699171 L25.1687164,28.1970679 C26.7826114,29.1321077 28.8537198,28.5774379 29.7876666,26.9542763 L31.4840061,24.0059906 C32.4146995,22.3882436 31.8644882,20.307555 30.247816,19.3710023 Z M26.0352952,15.5676206 C26.0998859,16.0343044 26.132578,16.5079157 26.132578,16.9867822 C26.132578,17.4656487 26.0998859,17.93926 26.0352952,18.4059438 L25.7217049,20.6716815 L28.5502069,22.31037 L26.8574382,25.2525246 L24.0238578,23.6108899 L22.224205,25.0226464 C21.4798248,25.6065386 20.6587133,26.0838126 19.7838821,26.4391803 L17.6685758,27.2984169 L17.6685758,30.5761124 L14.2829591,30.5761124 L14.2829591,27.2984169 L12.1676528,26.4391803 C11.2928216,26.0838126 10.4716308,25.6065386 9.72732994,25.0226464 L7.92767709,23.6108899 L5.09409671,25.2525246 L3.40132801,22.31037 L6.22983,20.6716815 L5.9162397,18.4059438 C5.85164899,17.93926 5.81895688,17.4656487 5.81895688,16.9867822 C5.81895688,16.5079157 5.85164899,16.0343044 5.9162397,15.5676206 L6.22983,13.3018829 L3.40132801,11.6631944 L5.09409671,8.72103981 L7.92767709,10.3626745 L9.72732994,8.95091803 C10.4717102,8.36702576 11.2928216,7.88975176 12.1676528,7.53438407 L14.2829591,6.67506792 L14.2829591,3.39737237 L17.6685758,3.39737237 L17.6685758,6.67506792 L19.7838821,7.53430445 C20.6587133,7.88967213 21.4799041,8.36694614 22.224205,8.95083841 L24.0238578,10.3625948 L26.8574382,8.72096019 L28.5502069,11.6631148 L25.7217049,13.3018033 L26.0352952,15.5676206 Z" id="Shape" fill="#5E74FF"></path>
                <path d="M15.9757278,10.1920375 C12.2361317,10.1920375 9.20457363,13.2341218 9.20457363,16.9867026 C9.20457363,20.7392834 12.2361317,23.7813677 15.9757278,23.7813677 C19.7153239,23.7813677 22.7468819,20.7392834 22.7468819,16.9867026 C22.7468819,13.2341218 19.7154032,10.1920375 15.9757278,10.1920375 Z M15.9757278,20.3840749 C14.1059297,20.3840749 12.590111,18.862993 12.590111,16.9867026 C12.590111,15.1104122 14.1059297,13.5893302 15.9757278,13.5893302 C17.8455258,13.5893302 19.3613445,15.1104122 19.3613445,16.9867026 C19.3613445,18.862993 17.8455258,20.3840749 15.9757278,20.3840749 Z" id="Shape" fill="#FFFFFF"></path>
            </g>
        </g>
    </g>
</svg>