<?xml version="1.0" encoding="UTF-8"?>
<svg width="30px" height="31px" viewBox="0 0 30 31" version="1.1" xmlns="http://www.w3.org/2000/svg" xmlns:xlink="http://www.w3.org/1999/xlink">
    <!-- Generator: Sketch 51.2 (57519) - http://www.bohemiancoding.com/sketch -->
    <title>Combined Shape</title>
    <desc>Created with Sketch.</desc>
    <defs></defs>
    <g id="Page-1" stroke="none" stroke-width="1" fill="none" fill-rule="evenodd">
        <g id="Artboard-2-Copy-7" transform="translate(-277.000000, -23.000000)" fill="#6776FF" fill-rule="nonzero">
            <g id="dark_img_1">
                <path d="M282.178238,24.8082074 C285.129979,23.8416681 288.4039,23.3583984 292,23.3583984 C295.5961,23.3583984 298.870021,23.8416681 301.821762,24.8082075 C303.5874,25.3863609 304.972038,26.7709984 305.550191,28.5366365 C306.51673,31.4883775 307,34.7622982 307,38.3583986 C307,41.954499 306.51673,45.2284197 305.550191,48.1801606 C304.972038,49.9457987 303.5874,51.3304362 301.821762,51.9085894 C298.870021,52.8751288 295.5961,53.3583984 292,53.3583984 C288.4039,53.3583984 285.129979,52.8751288 282.178238,51.9085894 C280.4126,51.3304361 279.027962,49.9457985 278.449809,48.1801604 C277.48327,45.2284196 277,41.954499 277,38.3583986 C277,34.7622981 277.48327,31.4883773 278.449809,28.5366364 C279.027962,26.7709982 280.4126,25.3863607 282.178238,24.8082074 Z M291.975419,45.8665545 C296.135635,45.8665545 299.508156,42.4940333 299.508156,38.3338176 C299.508156,34.1736019 296.135635,30.8010807 291.975419,30.8010807 C287.815203,30.8010807 284.442682,34.1736019 284.442682,38.3338176 C284.442682,42.4940333 287.815203,45.8665545 291.975419,45.8665545 Z M291.975419,25.2333984 C291.353133,25.2333984 290.861883,25.7246485 290.861883,26.3469349 L290.861883,28.1810077 C290.861883,28.8032941 291.353133,29.2945441 291.975419,29.2945441 C292.597706,29.2945441 293.088956,28.8032941 293.088956,28.1810077 L293.088956,26.3469349 C293.088956,25.7246485 292.597706,25.2333984 291.975419,25.2333984 Z M291.975419,47.3731454 C291.353133,47.3731454 290.861883,47.8643955 290.861883,48.4866819 L290.861883,50.3207547 C290.861883,50.943041 291.353133,51.4342911 291.975419,51.4342911 C292.597706,51.4342911 293.088956,50.943041 293.088956,50.3207547 L293.088956,48.4866819 C293.088956,47.8643955 292.597706,47.3731454 291.975419,47.3731454 Z M305.075838,38.3338176 C305.075838,37.7115312 304.584588,37.2202811 303.962302,37.2202811 L302.128229,37.2202811 C301.505943,37.2202811 301.014693,37.7115312 301.014693,38.3338176 C301.014693,38.9561039 301.505943,39.447354 302.128229,39.447354 L303.962302,39.447354 C304.584588,39.447354 305.075838,38.9561039 305.075838,38.3338176 Z M282.936146,38.3338176 C282.936146,37.7115312 282.444896,37.2202811 281.822609,37.2202811 L279.988536,37.2202811 C279.36625,37.2202811 278.875,37.7115312 278.875,38.3338176 C278.875,38.9561039 279.36625,39.447354 279.988536,39.447354 L281.822609,39.447354 C282.444841,39.447354 282.936146,38.9561039 282.936146,38.3338176 Z M301.243979,29.0652579 C300.818193,28.6394715 300.097711,28.6394715 299.671924,29.0652579 L298.361888,30.3752943 C297.936101,30.8010807 297.936101,31.5215627 298.361888,31.947349 C298.787674,32.3731353 299.508156,32.3731353 299.933942,31.947349 L301.243979,30.6373125 C301.669765,30.2115806 301.669765,29.4910442 301.243979,29.0652579 Z M285.588951,44.7202862 C285.163164,44.2944999 284.442682,44.2944999 284.016896,44.7202862 L282.706859,46.0303227 C282.281073,46.456109 282.281073,47.176591 282.706859,47.6023773 C283.132646,48.0281636 283.853128,48.0281636 284.278914,47.6023773 L285.588951,46.2923408 C286.014737,45.8665545 286.014737,45.1788044 285.588951,44.7202862 Z M301.243979,47.6023773 C301.669765,47.176591 301.669765,46.456109 301.243979,46.0303227 L299.933942,44.7202862 C299.508156,44.2944999 298.787674,44.2944999 298.361888,44.7202862 C297.936101,45.1460725 297.936101,45.8665545 298.361888,46.2923408 L299.671924,47.6023773 C300.097711,48.0281636 300.818193,48.0281636 301.243979,47.6023773 Z M285.588951,31.947349 C286.014737,31.5215627 286.014737,30.8010807 285.588951,30.3752943 L284.278914,29.0652579 C283.853128,28.6394715 283.132646,28.6394715 282.706859,29.0652579 C282.281073,29.4910442 282.281073,30.2115262 282.706859,30.6373125 L284.016896,31.947349 C284.442682,32.3731353 285.130432,32.3731353 285.588951,31.947349 Z" id="Combined-Shape"></path>
            </g>
        </g>
    </g>
</svg>

