<?xml version="1.0" encoding="UTF-8"?>
<svg width="20px" height="22px" viewBox="0 0 20 22" version="1.1" xmlns="http://www.w3.org/2000/svg" xmlns:xlink="http://www.w3.org/1999/xlink">
    <!-- Generator: Sketch 51.2 (57519) - http://www.bohemiancoding.com/sketch -->
    <title>trash (1)</title>
    <desc>Created with Sketch.</desc>
    <defs></defs>
    <g id="Page-1" stroke="none" stroke-width="1" fill="none" fill-rule="evenodd">
        <g id="Artboard-2" transform="translate(-239.000000, -313.000000)" fill="#d9deff" fill-rule="nonzero">
            <g id="trash-(1)" transform="translate(239.000000, 313.000000)">
                <path d="M15.5647671,7 L15.5647671,18.0855582 C15.5647671,18.7017955 15.0709342,19.1965131 14.4600572,19.1965131 L5.56705699,19.1965131 C4.95696071,19.1965131 4.46234712,18.7003383 4.46234712,18.0855582 L4.46234712,7 L2.24184231,7 L2.24184231,18.0855582 C2.24184231,19.9250585 3.72901379,21.417018 5.56705699,21.417018 L14.4600572,21.417018 C16.2981525,21.417018 17.7852719,19.9272964 17.7852719,18.0855582 L17.7852719,7 L15.5647671,7 Z" id="Shape"></path>
                <polygon id="Rectangle-path" points="6.65938069 7 8.87988551 7 8.87988551 17.0112412 6.65938069 17.0112412"></polygon>
                <polygon id="Rectangle-path" points="11.112152 7 13.3326568 7 13.3326568 16.9913089 11.112152 16.9913089"></polygon>
                <rect id="Rectangle-path" x="0.00967993755" y="2" width="19.9843872" height="2.22050481"></rect>
                <path d="M12.2016133,0 L7.78293,0 C7.16893052,0 6.67119438,0.49279209 6.67119438,1.11022639 L6.67119438,2.22045277 L13.313401,2.22045277 L13.313401,1.11022639 C13.3133489,0.497059589 12.8141036,0 12.2016133,0 Z" id="Shape"></path>
            </g>
        </g>
    </g>
</svg>