<?xml version="1.0" encoding="UTF-8"?>
<svg width="24px" height="16px" viewBox="0 0 24 16" version="1.1" xmlns="http://www.w3.org/2000/svg" xmlns:xlink="http://www.w3.org/1999/xlink">
    <!-- Generator: Sketch 51.2 (57519) - http://www.bohemiancoding.com/sketch -->
    <title>eye (7)</title>
    <desc>Created with Sketch.</desc>
    <defs></defs>
    <g id="Page-1" stroke="none" stroke-width="1" fill="none" fill-rule="evenodd">
        <g id="Artboard-2" transform="translate(-197.000000, -316.000000)" fill="#d9deff" fill-rule="nonzero">
            <g id="eye-(7)" transform="translate(197.000000, 316.000000)">
                <path d="M22.386829,5.15725913 L17.2744918,1.55329825 C14.3579016,-0.50276016 9.62636066,-0.500961565 6.71179391,1.55329825 L1.58922717,5.16387161 C-0.528505855,6.65654663 -0.52771897,9.08671277 1.57984075,10.5839901 L6.7320281,14.2441835 C9.6378829,16.3086001 14.3524496,16.3060609 17.2543138,14.2441835 L22.4056581,10.5839901 C24.5177705,9.08316848 24.5127681,6.65596473 22.386829,5.15725913 Z M20.9605995,8.78259154 L15.8092553,12.442785 C13.7611616,13.8980598 10.2261358,13.8986417 8.17669321,12.4426792 L3.02450585,8.78248574 C2.18855269,8.18857914 2.18922717,7.56065794 3.02658548,6.97045433 L8.14915222,3.35988098 C10.212534,1.90555834 13.7731897,1.90513514 15.8366838,3.35977518 L20.9490211,6.96373605 C21.7972834,7.56161014 21.7991382,8.18683345 20.9605995,8.78259154 Z" id="Shape"></path>
                <path d="M11.9916815,3.91670478 C9.67391101,3.91670478 7.79494145,5.68509381 7.79494145,7.86657777 C7.79494145,10.0480088 9.6738548,11.8164508 11.9916815,11.8164508 C14.3095082,11.8164508 16.1884215,10.0480617 16.1884215,7.86657777 C16.1884215,5.68509381 14.3095082,3.91670478 11.9916815,3.91670478 Z M11.9916815,9.55932002 C10.9983513,9.55932002 10.1930867,8.80142389 10.1930867,7.86652487 C10.1930867,6.93162584 10.9983513,6.17372971 11.9916815,6.17372971 C12.9850117,6.17372971 13.7902763,6.93162584 13.7902763,7.86652487 C13.7902763,8.80142389 12.9850117,9.55932002 11.9916815,9.55932002 Z" id="Shape"></path>
            </g>
        </g>
    </g>
</svg>