<?xml version="1.0" encoding="UTF-8"?>
<svg width="512px" height="512px" viewBox="0 0 512 512" version="1.1" xmlns="http://www.w3.org/2000/svg" xmlns:xlink="http://www.w3.org/1999/xlink">
    <!-- Generator: Sketch 51.2 (57519) - http://www.bohemiancoding.com/sketch -->
    <title>recycle</title>
    <desc>Created with Sketch.</desc>
    <defs></defs>
    <g id="Page-1" stroke="none" stroke-width="1" fill="none" fill-rule="evenodd">
        <g id="recycle" fill-rule="nonzero">
            <g id="Group">
                <path d="M508.414,312.969 C506.052,318.999 502.329,324.402 497.534,328.756 L496.894,329.396 C488.632,337.141 477.712,341.417 466.387,341.343 L405.374,341.343 C401.747,341.337 398.372,339.489 396.414,336.436 L386.174,320.009 L343.081,251.102 C341.408,248.669 340.937,245.605 341.801,242.782 C342.456,239.881 344.319,237.397 346.921,235.955 L442.921,182.622 C448.115,179.891 454.539,181.78 457.428,186.889 L506.921,275.209 C513.102,286.922 513.651,300.804 508.414,312.969 Z" id="Shape" fill="#44C000"></path>
                <path d="M278.654,87.262 L269.694,99.849 L222.121,166.196 C220.123,169.041 216.85,170.717 213.374,170.676 C211.591,170.657 209.837,170.218 208.254,169.396 L90.921,105.396 C88.192,103.95 86.241,101.374 85.588,98.356 C84.914,95.3 85.616,92.102 87.508,89.609 L133.161,28.809 C134.982,26.323 136.979,23.971 139.134,21.769 C151.986,8.212 169.737,0.374 188.414,0.009 C189.414,-0.026 190.416,0.045 191.401,0.222 C214.221,0.91 235.359,12.39 248.361,31.155 L278.654,75.102 C281.19,78.759 281.19,83.606 278.654,87.262 Z" id="Shape" fill="#2585FE"></path>
                <path d="M209.96,295.902 C206.713,298.885 201.966,299.564 198.013,297.609 L164.733,280.969 L145.32,320.009 L137.64,335.369 C135.8,338.99 132.102,341.291 128.04,341.342 L45.694,341.342 C34.255,341.48 23.22,337.112 14.974,329.182 L14.547,328.755 C9.634,324.246 5.773,318.711 3.24,312.542 C-0.034,304.195 -0.776,295.068 1.107,286.302 C1.937,282.532 3.226,278.878 4.947,275.422 L40.36,204.809 L3.24,167.475 C0.077,164.531 -0.866,159.902 0.893,155.955 C2.529,151.972 6.4,149.363 10.706,149.342 L149.373,149.342 C153.679,149.363 157.55,151.972 159.186,155.955 L212.519,283.955 C214.176,288.088 213.164,292.811 209.96,295.902 Z" id="Shape" fill="#FFBA00"></path>
            </g>
            <g id="Group">
                <path d="M213.374,330.675 L213.374,458.675 C213.374,464.566 208.598,469.342 202.707,469.342 L150.867,469.342 C126.384,469.399 103.46,457.338 89.64,437.129 C86.653,432.862 84.093,429.022 81.747,425.609 L80.894,424.756 C81.107,424.756 76.841,418.783 72.787,412.809 C70.867,410.249 69.374,407.689 67.88,405.769 C62.333,397.662 59.347,393.609 60.627,395.316 C59.56,393.609 58.494,392.329 58.067,391.476 L57.854,391.263 C57.001,389.983 56.723,389.556 56.681,389.45 L56.361,389.13 L56.148,388.703 C41.215,367.156 27.348,347.103 14.975,329.183 L14.548,328.756 C10.495,323.209 6.868,317.663 3.241,312.543 C-0.033,304.196 -0.775,295.069 1.108,286.303 L29.908,313.823 C34.125,317.922 39.815,320.152 45.695,320.01 L202.708,320.01 C208.598,320.009 213.374,324.784 213.374,330.675 Z" id="Shape" fill="#FE2D26"></path>
                <path d="M447.187,57.395 L393.854,185.395 C392.218,189.378 388.347,191.987 384.041,192.008 C383.394,192.043 382.745,191.971 382.121,191.795 L264.788,170.462 C260.313,169.547 256.848,165.997 256.041,161.502 C255.402,156.898 257.819,152.41 262.014,150.409 L293.587,134.622 L269.694,99.849 L230.867,43.102 C221.482,29.768 206.212,21.815 189.907,21.769 L139.134,21.769 C149.683,10.602 163.638,3.249 178.814,0.862 L188.414,0.222 L191.401,0.222 L329.214,0.009 C347.108,-0.077 363.852,8.816 373.801,23.689 L398.334,60.809 L432.681,43.742 C436.633,41.787 441.381,42.465 444.628,45.449 C447.836,48.537 448.849,53.264 447.187,57.395 Z" id="Shape" fill="#00A3F9"></path>
                <path d="M508.414,312.969 L498.387,327.476 L497.534,328.756 L496.894,329.396 L422.654,437.129 C408.746,457.349 385.756,469.403 361.214,469.342 L341.374,469.342 L341.374,501.342 C341.34,505.759 338.644,509.718 334.547,511.369 C333.31,511.789 332.013,512.005 330.707,512.009 C327.668,512.031 324.776,510.703 322.814,508.382 L237.481,412.382 C234.096,408.708 233.827,403.139 236.841,399.155 L322.174,281.822 C324.79,278.066 329.531,276.429 333.907,277.769 C338.374,279.174 341.402,283.327 341.374,288.009 L341.374,320.009 L466.387,320.009 C472.267,320.152 477.956,317.922 482.174,313.822 L510.974,286.302 C512.94,295.239 512.044,304.569 508.414,312.969 Z" id="Shape" fill="#00AB4A"></path>
            </g>
        </g>
    </g>
</svg>