<?xml version="1.0" encoding="UTF-8"?>
<svg width="80px" height="63px" viewBox="0 0 80 63" version="1.1" xmlns="http://www.w3.org/2000/svg" xmlns:xlink="http://www.w3.org/1999/xlink">
    <!-- Generator: Sketch 51.2 (57519) - http://www.bohemiancoding.com/sketch -->
    <title>options_icon</title>
    <desc>Created with Sketch.</desc>
    <defs>
        <linearGradient x1="50%" y1="50%" x2="50%" y2="52.8102271%" id="linearGradient-1">
            <stop stop-color="#FE2D26" offset="0%"></stop>
            <stop stop-color="#FFA805" offset="0%"></stop>
            <stop stop-color="#FFBA00" offset="100%"></stop>
        </linearGradient>
        <linearGradient x1="50%" y1="46.6712816%" x2="50%" y2="46.6712816%" id="linearGradient-2">
            <stop stop-color="#00A3F9" offset="0%"></stop>
            <stop stop-color="#2585FE" offset="100%"></stop>
        </linearGradient>
    </defs>
    <g id="Page-1" stroke="none" stroke-width="1" fill="none" fill-rule="evenodd">
        <g id="options_icon" fill-rule="nonzero">
            <path d="M53.5382128,16.7563555 L55.187419,14.4008696 C56.0236903,13.2064614 55.8800834,11.5837219 54.8470497,10.5547408 L52.0681923,7.78678496 C51.0412709,6.7638922 49.4298818,6.6214854 48.2394814,7.44842195 L45.8561702,9.10403895 C43.1397447,7.33168973 40.0769362,6.04223064 36.7901277,5.36011442 L36.2832146,2.52805803 C36.0272167,1.09783126 34.7831035,0.0566310763 33.3301466,0.0566310763 L29.3869597,0.0566310763 C27.9340029,0.0566310763 26.6898897,1.09783126 26.4338918,2.52805803 L25.9269787,5.36011442 C22.6401702,6.04223064 19.5777021,7.33168973 16.8609362,9.10403895 L14.477653,7.44844144 C13.2872402,6.62149622 11.675832,6.7639156 10.6489135,7.78683287 L7.87013175,10.5547877 C6.83714338,11.5837513 6.6935316,13.2064312 7.52974658,14.4008246 L9.17889362,16.7563555 C7.39948936,19.4626088 6.10519149,22.5133961 5.42042553,25.7874862 L2.57172482,26.29344 C1.13966275,26.5477865 0.0963404255,27.7927398 0.0963404255,29.2472136 L0.0963404255,33.1487936 C0.0963404255,34.6033023 1.13971167,35.8482749 2.57181601,36.1025833 L5.42042553,36.6084302 C6.10519149,39.8825203 7.39948936,42.9333076 9.17889362,45.6395609 L7.52974658,47.9950918 C6.6935316,49.1894852 6.83714338,50.8121651 7.87013175,51.8411287 L10.6489135,54.6090835 C11.675832,55.6320008 13.2872402,55.7744202 14.477653,54.947475 L16.8609362,53.2918774 C19.5775319,55.0642267 22.6401702,56.3535162 25.9269787,57.0356324 L26.433903,59.867842 C26.6898941,61.2980764 27.9340108,62.3392853 29.3869739,62.3392853 L33.3301325,62.3392853 C34.7830956,62.3392853 36.0272123,61.2980764 36.2832034,59.867842 L36.7901277,57.0356324 C40.0208855,56.3644426 43.0962614,55.094489 45.8561702,53.2918774 L48.2394814,54.9474944 C49.4298818,55.774431 51.0412709,55.6320242 52.0681923,54.6091314 L54.8470497,51.8411756 C55.8800834,50.8121945 56.0236903,49.189455 55.187419,47.9950468 L53.5382128,45.6395609 C55.3480163,42.890332 56.6230241,39.8267859 57.2968511,36.6084302 L60.1454606,36.1025833 C61.5775649,35.8482749 62.6209362,34.6033023 62.6209362,33.1487936 L62.6209362,29.2472136 C62.6209362,27.7927398 61.5776138,26.5477865 60.1455518,26.29344 L57.2968511,25.7874862 C56.6230241,22.5691305 55.3480163,19.5055844 53.5382128,16.7563555 Z M19.8864681,31.1979582 C19.8864681,24.8868147 25.0226383,19.7705191 31.3584681,19.7705191 C37.6942979,19.7705191 42.8302979,24.8868147 42.8302979,31.1979582 C42.8302979,37.5091017 37.6942979,42.6253973 31.3584681,42.6253973 C25.0226383,42.6253973 19.8864681,37.5091017 19.8864681,31.1979582 Z" id="Shape" fill="url(#linearGradient-1)"></path>
            <path d="M31.3584681,12.8608496 C21.1918298,12.8608496 12.9501277,21.0706601 12.9501277,31.1979582 C12.9501277,41.3252563 21.1918298,49.5348972 31.3584681,49.5348972 C41.5251064,49.5348972 49.7668085,41.3250867 49.7668085,31.1979582 C49.7669787,21.0706601 41.5252766,12.8608496 31.3584681,12.8608496 Z M31.3584681,42.6253973 C25.0226383,42.6253973 19.8864681,37.5091017 19.8864681,31.1979582 C19.8864681,24.8868147 25.0226383,19.7705191 31.3584681,19.7705191 C37.6942979,19.7705191 42.8302979,24.8868147 42.8302979,31.1979582 C42.8302979,37.5091017 37.6942979,42.6253973 31.3584681,42.6253973 Z" id="Shape" fill="url(#linearGradient-2)"></path>
            <path d="M76.5455319,44.5552623 C75.8339117,43.4912636 74.928062,42.5698243 73.8750638,41.8388357 L74.348766,39.7962172 L71.1426383,38.4328325 L69.9894468,40.1865308 C68.7311601,39.9344215 67.436513,39.9201574 66.1729362,40.1444814 L65.0585532,38.3675542 L61.8234894,39.6620999 L62.2525957,41.7130265 C61.184446,42.4217435 60.259467,43.3240481 59.5257872,44.3729916 L57.475234,43.9011225 L56.1065532,47.0950134 L57.8668936,48.2437426 C57.6138063,49.4971033 57.5994867,50.786685 57.8246809,52.0453155 L56.0410213,53.1552168 L57.3402553,56.3777624 L59.3991489,55.9503165 C60.1107691,57.0143151 61.0166189,57.9357545 62.069617,58.6667431 L61.5959149,60.7093616 L64.8020426,62.0727462 L65.955234,60.319048 C67.213519,60.5711289 68.5081502,60.5854504 69.7717447,60.361267 L70.8861277,62.1380246 L74.1211915,60.843818 L73.6920851,58.7927218 C74.7601965,58.0839577 75.6851674,57.1816611 76.4188936,56.1327567 L78.4694468,56.6046259 L79.8381277,53.4107349 L78.0777872,52.2621753 C78.3308759,51.0087575 78.3451954,49.7191201 78.12,48.4604328 L79.9038298,47.3503619 L78.6042553,44.1278163 L76.5455319,44.5552623 Z M69.635234,54.3766847 C67.3485957,55.2915987 64.7509787,54.1867841 63.8323404,51.9091636 C62.9140426,49.6315431 64.0231489,47.0436385 66.3094468,46.1288941 C68.5960851,45.21398 71.1937021,46.3187947 72.1123404,48.5964152 C73.0306383,50.8740357 71.9215319,53.4619402 69.635234,54.3766847 Z" id="Shape" fill="#00AB4A"></path>
        </g>
    </g>
</svg>