<?xml version="1.0" encoding="UTF-8"?>
<svg width="85px" height="105px" viewBox="0 0 85 105" version="1.1" xmlns="http://www.w3.org/2000/svg" xmlns:xlink="http://www.w3.org/1999/xlink">
    <!-- Generator: Sketch 51.2 (57519) - http://www.bohemiancoding.com/sketch -->
    <title>Group 2</title>
    <desc>Created with Sketch.</desc>
    <defs>
        <linearGradient x1="50%" y1="4.43009393%" x2="92.7998107%" y2="50%" id="linearGradient-1">
            <stop stop-color="#C2D4F8" offset="0%"></stop>
            <stop stop-color="#A8BFFA" offset="100%"></stop>
        </linearGradient>
        <path d="M13.42257,13.4009901 L12.40974,17.7613861 L8.09382,18.7841584 L12.40974,19.8074257 L13.42257,24.1678218 L14.43491,19.8074257 L18.75132,18.7841584 L14.43491,17.7613861 L13.42257,13.4009901 Z M23.11379,5.02623762 L22.55911,7.41584158 L20.19339,7.97673267 L22.55911,8.53762376 L23.11379,10.9272277 L23.66896,8.53762376 L26.03419,7.97673267 L23.66896,7.41584158 L23.11379,5.02623762 Z M32.0852,17.3668317 L31.25073,20.9608911 L27.69333,21.8039604 L31.25073,22.6470297 L32.0852,26.2410891 L32.91967,22.6470297 L36.47707,21.8039604 L32.91967,20.9608911 L32.0852,17.3668317 Z M21.49973,29.9623762 L20.80589,32.9509901 L17.84727,33.6524752 L20.80589,34.3534653 L21.49973,37.3420792 L22.19357,34.3534653 L25.15219,33.6524752 L22.19357,32.9509901 L21.49973,29.9623762 Z M48.75843,20.5282178 C48.75843,20.5282178 39.17109,30.2148515 19.99641,49.5871287 L0,29.2079208 C2.06388,14.1034653 13.71314,1.98168317 28.81004,0.374257426 L48.75843,20.5282178 Z" id="path-2"></path>
    </defs>
    <g id="Page-1" stroke="none" stroke-width="1" fill="none" fill-rule="evenodd">
        <g id="Artboard-2" transform="translate(-67.000000, -17.000000)">
            <g id="Group-2" transform="translate(67.000000, 17.000000)">
                <ellipse id="Oval-3" fill="#EEF3F9" fill-rule="nonzero" cx="38" cy="48.5" rx="38" ry="38.5"></ellipse>
                <g id="shutterstock_792828469-copy-2" transform="translate(0.000000, 7.000000)">
                    <path d="M43.8053571,53.5604906 C43.2857143,54.083434 43.2857143,54.9404528 43.8053571,55.4643774 C44.325487,55.9878113 45.1762987,55.9878113 45.6959416,55.4643774 L52.3066558,48.805434 C52.8267857,48.2815094 52.8267857,47.4244906 52.3066558,46.9010566 C51.787013,46.3776226 50.9362013,46.3776226 50.4160714,46.9010566 L43.8053571,53.5604906 Z M51.7987013,57.3775849 C68.1160714,73.8120377 71.9206169,77.6428679 71.9206169,77.6428679 C72.3131494,78.0583774 72.9803571,78.055434 73.3699675,77.6379623 C74.0035714,76.9992453 74.3201299,76.6803774 74.3201299,76.6803774 C74.7569805,76.2913585 74.7545455,75.593283 74.3137987,75.2076981 C58.0051948,58.7806038 54.2060065,54.9532075 54.2060065,54.9532075 C52.6012987,56.5696226 51.7987013,57.3775849 51.7987013,57.3775849 Z M28.1926948,58.8051321 C27.8746753,59.1254717 27.8751623,59.6493962 28.1926948,59.9697358 L28.7211039,60.5015094 C29.0391234,60.8218491 29.5592532,60.8218491 29.8767857,60.5015094 L57.3077922,32.8708679 C57.6253247,32.5505283 57.6258117,32.0266038 57.3077922,31.7067547 L56.7798701,31.1744906 C56.4623377,30.8541509 55.9417208,30.8541509 55.6237013,31.1744906 L28.1926948,58.8051321 Z M31.013961,61.7661887 L58.5623377,34.0163396 C58.8482143,33.7283774 59.3152597,33.7283774 59.6006494,34.0163396 L60.638961,35.0622264 C61.4956169,35.9246415 61.4956169,37.336 60.638961,38.1984151 L54.0102273,44.8755094 L54.4207792,45.288566 C55.7142857,46.5915094 55.7142857,48.7235094 54.4207792,50.0259623 L52.8969156,51.561434 C52.9855519,53.0331321 53.0303571,53.7684906 53.0303571,53.7684906 C53.0303571,53.7684906 52.2277597,54.5769434 50.6230519,56.1938491 C50.6230519,56.1938491 49.8925325,56.148717 48.4314935,56.0589434 L46.9076299,57.5944151 C45.6146104,58.8968679 43.4980519,58.8968679 42.2045455,57.5944151 L41.7939935,57.1808679 L35.1662338,63.8574717 C34.3095779,64.7198868 32.9084416,64.7198868 32.0517857,63.8574717 L31.013961,62.8115849 C30.7285714,62.5236226 30.7285714,62.0536604 31.013961,61.7661887 Z" id="Fill-3" fill="#333D48"></path>
                    <path d="M4.00665584,16.4967547 L4.74448052,19.6648302 L7.8900974,20.4085283 L4.74448052,21.1512453 L4.00665584,24.3198113 L3.26834416,21.1512453 L0.123214286,20.4085283 L3.26834416,19.6648302 L4.00665584,16.4967547 Z M21.3375,0.151584906 L22.2579545,4.10260377 L26.1803571,5.02928302 L22.2579545,5.95645283 L21.3375,9.9074717 L20.4175325,5.95645283 L16.4951299,5.02928302 L20.4175325,4.10260377 L21.3375,0.151584906 Z" id="Fill-4" fill="#6A8BFA"></path>
                </g>
                <path d="M62.1387334,41.5470456 L70.4146142,41.5470456 C70.7993748,43.5787554 71,45.6769818 71,47.8213894 C71,50.2259598 70.7478117,52.5714917 70.2673844,54.8339763 C69.1453482,60.1307393 66.6897774,64.9591841 63.344284,69.0058316 C61.7200264,67.3720775 60.2832124,65.9268477 59.0234893,64.6597307 C57.7106118,63.3391474 56.6877896,62.3103024 55.9208563,61.5388353 C55.1880962,60.8017355 55.1880962,60.8017355 55.0688947,60.6818214 L54.2813477,59.8895666 C54.263554,59.5962523 54.2435377,59.2656503 54.2213064,58.8977527 L55.2846655,57.8278323 C56.94289,56.160537 57.1320534,53.558944 55.8520405,51.6778782 L61.5287041,45.9680121 C62.7165797,44.773868 62.9199788,42.9552239 62.1387334,41.5470456 Z M47.6319486,65.522489 C47.6683516,65.4880759 47.7043437,65.4529829 47.7399085,65.4172101 L48.803045,64.3475136 C49.1688967,64.369981 49.4976969,64.3901914 49.7894457,64.4081409 L50.5766425,65.1998475 C53.6738318,68.3147802 56.4268359,71.0835202 58.8576927,73.528237 C58.6682655,73.6875462 58.4772427,73.8448117 58.2846715,74 L48.9102911,73.5224001 L47.6319486,65.522489 Z M4.10703548,45.0179846 L18.0167886,58.9483457 L16.7794089,63.5015849 L7.91423091,63.7328453 C5.31326953,58.977636 4,53.487291 4,47.7057615 C4,46.8010535 4.03612163,45.9046881 4.10703548,45.0179846 Z M49.8676836,29.0581022 L34.9311871,14.0997102 C35.7813576,14.0336546 36.6400938,14 37.5061497,14 C45.5906231,14 53.0032451,16.8982778 58.7737226,21.7200082 L49.8676836,29.0581022 Z" id="Combined-Shape_2" fill="#7793EF" fill-rule="nonzero"></path>
                <path d="M18,59.1426039 L16.7641024,63.7652161 L7.90954264,64 C5.31169656,59.1723404 4,53.5983446 4,47.7287277 C4,46.8102357 4.03607837,45.9002133 4.10690728,45 L18,59.1426039 Z" id="Combined-Shape_1" fill="#5D7CE1" fill-rule="nonzero"></path>
                <path d="M16.2143597,57 L30.666445,71.4153072 C32.0895721,72.8401928 34.4078916,72.8401928 35.8304843,71.4158425 L39.8725655,67.3661679 C41.0982699,67.2020071 42.2882816,66.9253035 43.4317632,66.5467292 C44.8840868,66.7693833 46.4205137,66.3226617 47.5346,65.2065644 L47.5800881,65.1609796 L58,73.691982 C52.3152713,78.2649377 45.0915685,81 37.2280632,81 C24.5913144,81 13.6046238,73.9363345 8,63.5413089 L16.2143597,57 Z" id="Combined-Shape" fill="#4565CD" fill-rule="nonzero"></path>
                <g id="Shape" transform="translate(5.000000, 14.000000)">
                    <mask id="mask-3" fill="white">
                        <use xlink:href="#path-2"></use>
                    </mask>
                    <use id="Mask" fill="url(#linearGradient-1)" xlink:href="#path-2"></use>
                    <path d="M53.8981683,60.3827489 C48.1602114,65.0376868 40.8688705,67.8217822 32.9317362,67.8217822 C20.176665,67.8217822 9.08710194,60.631482 3.43,50.0500985 L14.7,40.9993559 C17.5284856,48.6128323 24.3946004,54.1223279 32.9317362,54.1223279 C36.6012184,54.1223279 40.0389947,53.1218534 42.9888936,51.3753116 L53.8981683,60.3827489 Z" fill-opacity="0.474071558" fill="#3C58B3" fill-rule="nonzero" mask="url(#mask-3)"></path>
                    <path d="M14.7,40.9993559 L7.105,47.029703 L3.43182568,50.0500985 C0.825817662,45.2645551 -0.49,39.7391863 -0.49,33.9207755 C-0.49,28.2944121 0.892053054,22.9886577 3.34183714,18.3168317 L7.105,21.2871287 L14.3072828,27.2277228 C13.5955067,29.2821917 13.4080401,31.625883 13.4080401,33.9207755 C13.4083078,36.4114264 13.8639944,38.7977701 14.7,40.9993559 Z" fill-opacity="0.46521173" fill="#5D7CE1" fill-rule="nonzero" mask="url(#mask-3)"></path>
                    <path d="M54.39,7.76925531 L43.5750512,16.7196652 C40.5320306,14.7968615 36.9349155,13.6861016 33.0811617,13.6861016 C24.3793094,13.6861016 16.9852974,19.3489206 14.3072828,27.2277228 L3.34183714,18.3168317 C8.89790899,7.48804321 20.1788064,0 33.0811617,0 C41.1813214,0 48.608326,2.91676637 54.39,7.76925531 Z" fill-opacity="0.266587409" fill="#5D7CE1" fill-rule="nonzero" mask="url(#mask-3)"></path>
                </g>
                <polygon id="Path-2-Copy" fill-opacity="0.416411911" fill="#5D7CE1" fill-rule="nonzero" points="47 41 38 41 38 50"></polygon>
                <ellipse id="Oval-2-Copy" fill="#E2E8F1" fill-rule="nonzero" cx="38.5" cy="100" rx="24.5" ry="5"></ellipse>
                <circle id="Oval-3-Copy-4" fill="#EEF3F9" fill-rule="nonzero" cx="80" cy="73" r="5"></circle>
                <circle id="Oval-3-Copy-5" fill="#EEF3F9" fill-rule="nonzero" cx="4" cy="81" r="3"></circle>
                <circle id="Oval-3-Copy-6" fill="#EEF3F9" fill-rule="nonzero" cx="6" cy="5" r="5"></circle>
            </g>
        </g>
    </g>
</svg>